# xmcd
#
# Track frame offsets: 
#        182
#        15750
#        48007
#        59560
#        67927
#        85995
#        103955
#        130470
#        148527
#        162420
#        181035
#        194915
#
# Disc length: 2749 seconds
#
# Revision: 2
# Processed by: cddbd v1.5.2PL0 Copyright (c) Steve Scherf et al.
# Submitted via: ExactAudioCopyFreeDBPlugin 1.0
#
DISCID=a50abb0c
DTITLE=Joan Manuel Serrat - Antología 1968-1974, Vol.2
DYEAR=1900
DGENRE=
TTITLE0=Mediterráneo
TTITLE1=Romance de Curro el Palmo
TTITLE2=Tu nombre me sabe a hierba
TTITLE3=Aquellas pequeñas cosas
TTITLE4=Poco antes de que den las 10
TTITLE5=De cartón piedra
TTITLE6=Nanas de la cebolla
TTITLE7=Canción infantil... para despertar a una paloma morena de tres
TTITLE7=primaveras
TTITLE8=Poema de amor
TTITLE9=Penélope
TTITLE10=Lucía
TTITLE11=Fiesta
EXTD=
EXTT0=
EXTT1=
EXTT2=
EXTT3=
EXTT4=
EXTT5=
EXTT6=
EXTT7=
EXTT8=
EXTT9=
EXTT10=
EXTT11=
PLAYORDER=
